<svg width="20" height="20" viewBox="0 0 20 20" fill="none" xmlns="http://www.w3.org/2000/svg">
<path d="M5.83334 7.08334L8.28503 8.53284C9.71434 9.37793 10.2857 9.37793 11.715 8.53284L14.1667 7.08334" stroke="#44C5FF" stroke-width="1.25" stroke-linecap="round" stroke-linejoin="round"/>
<path d="M1.67979 11.2297C1.73428 13.7842 1.76151 15.0616 2.70412 16.0077C3.64673 16.954 4.9586 16.9869 7.58235 17.0528C9.19941 17.0935 10.8006 17.0935 12.4177 17.0528C15.0414 16.9869 16.3532 16.954 17.2958 16.0077C18.2385 15.0616 18.2657 13.7842 18.3202 11.2297C18.3377 10.4082 18.3377 9.59165 18.3202 8.77032C18.2657 6.21568 18.2385 4.93837 17.2958 3.99218C16.3532 3.04599 15.0414 3.01303 12.4177 2.9471C10.8006 2.90647 9.19941 2.90647 7.58234 2.94709C4.9586 3.01301 3.64673 3.04597 2.70412 3.99217C1.76151 4.93836 1.73427 6.21567 1.67979 8.77023C1.66228 9.59165 1.66228 10.4082 1.67979 11.2297Z" stroke="#44C5FF" stroke-width="1.25" stroke-linejoin="round"/>
</svg>
