<svg width="18" height="18" viewBox="0 0 18 18" fill="none" xmlns="http://www.w3.org/2000/svg">
<g clip-path="url(#clip0_1156_1351)">
<path d="M3.75 7.5C4.99264 7.5 6 6.49264 6 5.25C6 4.00736 4.99264 3 3.75 3C2.50736 3 1.5 4.00736 1.5 5.25C1.5 6.49264 2.50736 7.5 3.75 7.5Z" stroke="currentColor" stroke-width="1.5"/>
<path d="M6 16.5C7.65685 16.5 9 15.1569 9 13.5C9 11.8431 7.65685 10.5 6 10.5C4.34315 10.5 3 11.8431 3 13.5C3 15.1569 4.34315 16.5 6 16.5Z" stroke="currentColor" stroke-width="1.5"/>
<path d="M12.75 9C14.8211 9 16.5 7.32107 16.5 5.25C16.5 3.17893 14.8211 1.5 12.75 1.5C10.6789 1.5 9 3.17893 9 5.25C9 7.32107 10.6789 9 12.75 9Z" stroke="currentColor" stroke-width="1.5"/>
</g>
<defs>
<clipPath id="clip0_1156_1351">
<rect width="18" height="18" fill="white"/>
</clipPath>
</defs>
</svg>
