<svg width="17" height="20" viewBox="0 0 17 20" fill="none" xmlns="http://www.w3.org/2000/svg">
<path d="M13.8647 4.36941C12.1801 2.29991 9.37167 0.972778 5.46049 0.972778H0.776489V2.76487C0.776489 4.70819 2.54747 6.28376 4.73236 6.28376H5.22187C5.47816 6.28376 5.68585 6.09915 5.68585 5.87134V4.39102C5.68585 4.03603 6.15621 3.847 6.4562 4.0812L13.2721 9.41379C13.4822 9.57778 13.4822 9.86893 13.2721 10.0334L6.4562 15.3655C6.15621 15.6002 5.68585 15.4112 5.68585 15.0557V13.5759C5.68585 13.3481 5.47816 13.1634 5.22187 13.1634H4.73236C2.54747 13.1634 0.776489 14.7385 0.776489 16.6818V18.9728H5.46049C12.2763 18.9728 15.7466 14.9433 15.7466 9.97302C15.7466 7.85442 15.1157 5.90718 13.8647 4.36941Z" stroke="currentColor" stroke-width="1.1"/>
<path d="M9.82785 10.2581L7.49703 11.908C7.26562 12.072 6.94543 11.9063 6.94543 11.6228V8.32301C6.94543 8.03952 7.26528 7.87384 7.49703 8.03778L9.82785 9.68767C10.0246 9.82679 10.0246 10.1187 9.82785 10.2581Z" stroke="currentColor" stroke-width="1.1"/>
</svg>
