<svg width="18" height="18" viewBox="0 0 18 18" fill="none" xmlns="http://www.w3.org/2000/svg">
<g clip-path="url(#clip0_1156_1357)">
<path d="M1.5 10.0715V6H16.5V10.0715C16.5 13.1019 16.5 14.6171 15.5237 15.5585C14.5474 16.5 12.9761 16.5 9.83333 16.5H8.16667C5.02397 16.5 3.45262 16.5 2.47631 15.5585C1.5 14.6171 1.5 13.1019 1.5 10.0715Z" stroke="currentColor" stroke-width="1.5" stroke-linecap="round" stroke-linejoin="round"/>
<path d="M1.5 6L2.22115 4.26923C2.78045 2.92693 3.0601 2.25577 3.62692 1.87789C4.19375 1.5 4.92084 1.5 6.375 1.5H11.625C13.0792 1.5 13.8062 1.5 14.3731 1.87789C14.9399 2.25577 15.2195 2.92693 15.7789 4.26923L16.5 6" stroke="currentColor" stroke-width="1.5" stroke-linecap="round"/>
<path d="M9 6V1.5" stroke="currentColor" stroke-width="1.5" stroke-linecap="round"/>
<path d="M7.5 9H10.5" stroke="currentColor" stroke-width="1.5" stroke-linecap="round"/>
</g>
<defs>
<clipPath id="clip0_1156_1357">
<rect width="18" height="18" fill="white"/>
</clipPath>
</defs>
</svg>
